<svg xmlns="http://www.w3.org/2000/svg" width="32" height="32" viewBox="0 0 32 32">
  <g fill="#262626" fill-rule="evenodd">
    <path fill-rule="nonzero" d="M16,0.017 C20.416,0.017 24.408,1.805 27.303,4.699 C30.196,7.593 31.985,11.584 31.985,16.001 C31.985,20.417 30.196,24.408 27.303,27.303 C24.408,30.198 20.416,31.985 16,31.985 C11.583,31.985 7.592,30.198 4.698,27.303 C1.804,24.408 0.016,20.417 0.016,16.001 C0.016,11.584 1.804,7.593 4.698,4.699 C7.592,1.805 11.583,0.017 16,0.017 M26.418,5.583 C23.754,2.91 20.072,1.265 16,1.265 C11.929,1.265 8.248,2.911 5.583,5.583 C2.91,8.247 1.264,11.93 1.264,16 C1.264,20.071 2.91,23.753 5.583,26.417 C8.247,29.09 11.929,30.735 16,30.735 C20.072,30.735 23.754,29.089 26.418,26.417 C29.09,23.753 30.736,20.071 30.736,16 C30.736,11.93 29.09,8.247 26.418,5.583"/>
    <path d="M9.699,16.522 L12.31,16.522 C12.894,16.522 13.894,16.778 13.894,17.884 C13.894,18.468 13.434,19.15 12.859,19.15 L9.699,19.15 L9.699,16.522 Z M18.107,11.273 L22.814,11.273 L22.814,12.84 L18.107,12.84 L18.107,11.273 Z M22.188,16.522 L18.735,16.522 C18.842,15.592 19.549,14.964 20.471,14.964 C21.381,14.965 22.055,15.603 22.188,16.522 Z M18.621,17.566 L24.398,17.566 L24.398,17.31 C24.398,15.141 22.832,13.372 20.47,13.372 C18.089,13.372 16.531,15.142 16.531,17.31 C16.531,19.495 18.09,21.248 20.47,21.248 C22.831,21.248 23.966,19.894 24.32,18.09 L22.187,18.09 C22.001,19.018 21.451,19.673 20.47,19.673 C19.471,19.673 18.709,18.743 18.621,17.566 Z M16.01,18.09 C16.01,16.956 15.249,15.974 14.222,15.62 C14.964,15.15 15.469,14.318 15.469,13.372 C15.469,11.929 14.292,10.752 12.859,10.752 L7.592,10.752 L7.592,21.248 L12.859,21.248 C14.576,21.248 16.01,19.841 16.01,18.09 Z M12.31,14.965 L9.699,14.965 L9.699,12.841 L12.31,12.841 C12.894,12.841 13.372,13.319 13.372,13.912 C13.373,14.486 12.894,14.965 12.31,14.965 Z"/>
  </g>
</svg>
