<svg xmlns="http://www.w3.org/2000/svg" width="32" height="32" viewBox="0 0 32 32">
  <g fill="#262626" fill-rule="evenodd">
    <path fill-rule="nonzero" d="M16,0.016 C20.417,0.016 24.407,1.804 27.302,4.698 C30.197,7.592 31.984,11.584 31.984,16 C31.984,20.416 30.197,24.408 27.302,27.303 C24.407,30.196 20.417,31.985 16,31.985 C11.584,31.985 7.593,30.196 4.697,27.303 C1.803,24.408 0.016,20.416 0.016,16 C0.016,11.584 1.803,7.592 4.697,4.698 C7.593,1.804 11.584,0.016 16,0.016 M26.426,5.583 C23.754,2.919 20.072,1.264 16,1.264 C11.928,1.264 8.246,2.919 5.583,5.583 C2.919,8.247 1.264,11.929 1.264,16 C1.264,20.072 2.919,23.754 5.583,26.426 C8.246,29.09 11.929,30.737 16,30.737 C20.071,30.737 23.754,29.091 26.426,26.426 C29.09,23.754 30.737,20.072 30.737,16 C30.736,11.929 29.09,8.247 26.426,5.583"/>
    <path d="M17.222,12.734 L17.222,11.424 C17.222,10.796 17.638,10.645 17.939,10.645 L19.771,10.645 L19.771,7.848 L17.248,7.848 C14.443,7.848 13.815,9.92 13.815,11.265 L13.815,12.734 L12.186,12.734 L12.186,14.708 L12.186,16 L13.832,16 L13.832,24.16 L17.099,24.16 L17.099,16 L19.515,16 L19.62,14.716 L19.815,12.734 L17.222,12.734 Z"/>
  </g>
</svg>
