<svg xmlns="http://www.w3.org/2000/svg" width="32" height="32" viewBox="0 0 32 32">
  <g fill="none" fill-rule="evenodd">
    <path fill="#262626" fill-rule="nonzero" d="M16,0.016 C20.416,0.016 24.416,1.804 27.303,4.698 C30.196,7.592 31.985,11.584 31.985,16 C31.985,20.416 30.196,24.408 27.303,27.303 C24.416,30.196 20.416,31.985 16,31.985 C11.593,31.985 7.592,30.196 4.698,27.303 C1.803,24.408 0.016,20.416 0.016,16 C0.016,11.584 1.803,7.592 4.698,4.698 C7.592,1.804 11.593,0.016 16,0.016 M26.426,5.583 C23.754,2.919 20.072,1.264 16,1.264 C11.938,1.264 8.247,2.919 5.583,5.583 C2.919,8.247 1.264,11.929 1.264,16 C1.264,20.072 2.919,23.754 5.583,26.426 C8.247,29.09 11.938,30.737 16,30.737 C20.072,30.737 23.754,29.091 26.426,26.426 C29.09,23.754 30.737,20.072 30.737,16 C30.736,11.929 29.09,8.247 26.426,5.583"/>
    <path fill="#262626" d="M11.912,16 C11.912,13.743 13.744,11.902 16,11.902 C18.266,11.902 20.098,13.743 20.098,16 C20.098,18.266 18.266,20.098 16,20.098 C13.744,20.098 11.912,18.266 11.912,16 M20.232,7.991 L11.778,7.991 C9.698,7.991 7.99,9.689 7.99,11.779 L7.99,20.231 C7.99,22.311 9.698,24.018 11.778,24.018 L20.232,24.018 C22.32,24.018 24.019,22.311 24.019,20.231 L24.019,11.779 C24.02,9.689 22.32,7.991 20.232,7.991 M11.778,8.938 L20.232,8.938 C21.796,8.938 23.072,10.212 23.072,11.779 L23.072,20.231 C23.072,21.797 21.797,23.073 20.232,23.073 L11.778,23.073 C10.211,23.073 8.937,21.798 8.937,20.231 L8.937,11.779 C8.938,10.212 10.211,8.938 11.778,8.938 M21.072,10.132 C20.611,10.132 20.24,10.504 20.24,10.964 C20.24,11.424 20.611,11.796 21.072,11.796 C21.531,11.796 21.904,11.424 21.904,10.964 C21.904,10.504 21.531,10.132 21.072,10.132 M21.168,16 C21.168,13.15 18.859,10.832 16,10.832 C13.149,10.832 10.832,13.15 10.832,16 C10.832,18.859 13.15,21.168 16,21.168 C18.859,21.168 21.168,18.859 21.168,16"/>
    <path stroke="#000" stroke-width=".5" d="M11.912,16 C11.912,13.743 13.744,11.902 16,11.902 C18.266,11.902 20.098,13.743 20.098,16 C20.098,18.266 18.266,20.098 16,20.098 C13.744,20.098 11.912,18.266 11.912,16 Z M20.232,7.991 L11.778,7.991 C9.698,7.991 7.99,9.689 7.99,11.779 L7.99,20.231 C7.99,22.311 9.698,24.018 11.778,24.018 L20.232,24.018 C22.32,24.018 24.019,22.311 24.019,20.231 L24.019,11.779 C24.02,9.689 22.32,7.991 20.232,7.991 Z M11.778,8.938 L20.232,8.938 C21.796,8.938 23.072,10.212 23.072,11.779 L23.072,20.231 C23.072,21.797 21.797,23.073 20.232,23.073 L11.778,23.073 C10.211,23.073 8.937,21.798 8.937,20.231 L8.937,11.779 C8.938,10.212 10.211,8.938 11.778,8.938 Z M21.072,10.132 C20.611,10.132 20.24,10.504 20.24,10.964 C20.24,11.424 20.611,11.796 21.072,11.796 C21.531,11.796 21.904,11.424 21.904,10.964 C21.904,10.504 21.531,10.132 21.072,10.132 Z M21.168,16 C21.168,13.15 18.859,10.832 16,10.832 C13.149,10.832 10.832,13.15 10.832,16 C10.832,18.859 13.15,21.168 16,21.168 C18.859,21.168 21.168,18.859 21.168,16 Z"/>
  </g>
</svg>
