<svg viewBox="0 0 1000 1000" xmlns="http://www.w3.org/2000/svg"><g fill="#231f20"><path d="m363.08 448.9-21.59 42.89-21.88-42.89h-20.88l42.77 79.31 42.77-79.31z"/><path d="m658.5 447.8-42.77 79.3h21.19l21.59-42.89 21.88 42.89h20.88z"/><path d="m460.45 487.5a54.82 54.82 0 0 0 -3.21-16.5 35.92 35.92 0 0 0 -7.56-12.49 33.71 33.71 0 0 0 -11.59-7.88 38.46 38.46 0 0 0 -14.78-2.78 40.31 40.31 0 0 0 -15.69 3.08 38.22 38.22 0 0 0 -20.78 20.78 40.32 40.32 0 0 0 -3.08 15.69 39.84 39.84 0 0 0 2.93 15.69 38.22 38.22 0 0 0 20.78 20.78 40.32 40.32 0 0 0 15.6 3.08h1a43.57 43.57 0 0 0 18.25-3.53 36.44 36.44 0 0 0 12.95-9.56l.57-.68-12.46-13.31-.73.84a27.24 27.24 0 0 1 -7.67 5.78 23.2 23.2 0 0 1 -11.22 2.58 20.65 20.65 0 0 1 -13.76-4.73 19.05 19.05 0 0 1 -6.52-11.29h57zm-38.8-22.65h1v-.13a18.48 18.48 0 0 1 10.84 3.67c2.77 2.14 4.72 5.42 5.81 9.76h-35.94a19.38 19.38 0 0 1 6.74-9.45 18.86 18.86 0 0 1 11.55-3.85z"/><path d="m571.59 503.9c0-6.18-1.76-11-5.38-14.79s-8.41-6.76-14.93-9.4l-5.37-1.94a24.86 24.86 0 0 1 -7.2-3.86 5.4 5.4 0 0 1 -1.92-4.21 4 4 0 0 1 1.94-3.66 9.63 9.63 0 0 1 5.27-1.34c4.4 0 7.7 2 10.08 6.24l.54 1 13.83-9.56-.5-.81a26.15 26.15 0 0 0 -10.77-10.28 31.15 31.15 0 0 0 -23.71-1.39 22.64 22.64 0 0 0 -8 4.71 22.91 22.91 0 0 0 -5.17 7.06 20.55 20.55 0 0 0 -1.9 8.83 23.39 23.39 0 0 0 4.6 14.04c2.94 4 7.65 7.27 14.39 9.94l5.26 2.1a28.49 28.49 0 0 1 7.38 3.89 5.6 5.6 0 0 1 2 4.63 5 5 0 0 1 -2.3 4.15 10.59 10.59 0 0 1 -6.43 1.75c-3.63 0-6.38-.72-8.41-2.21a21.82 21.82 0 0 1 -5.87-6.89l-.55-1-14.25 10.18.48.79a30.29 30.29 0 0 0 12.26 11.93c4.44 2.22 9.73 3.26 16.65 3.26a36.58 36.58 0 0 0 11.25-1.7 26.91 26.91 0 0 0 8.88-4.68 22.15 22.15 0 0 0 5.81-7.38 20.66 20.66 0 0 0 2.04-9.4z"/><path d="m473.95 472.09v53.81h18.5v-46.15l17.98-17.98-13.08-13.08z"/><path d="m588.9 518.85-20.27 20.27 13.08 13.08 25.69-25.69v-77.7h-18.5z"/></g></svg>