<svg xmlns="http://www.w3.org/2000/svg" width="404" height="106" viewBox="0 0 404 106">
  <g fill="#231F20" fill-rule="evenodd">
    <polygon points="65.08 1.9 43.49 44.79 21.61 1.9 .73 1.9 43.5 81.21 86.27 1.9"/>
    <polygon points="360.5 .8 317.73 80.1 338.92 80.1 360.51 37.21 382.39 80.1 403.27 80.1"/>
    <path fill-rule="nonzero" d="M162.45,40.5 C162.234604,34.8676837 161.151878,29.3022734 159.24,24 C157.601592,19.3630349 155.028449,15.1119041 151.68,11.51 C148.411384,8.10037234 144.462724,5.4156923 140.09,3.63 C135.394283,1.7397293 130.371606,0.795003976 125.31,0.85 C119.926805,0.818689619 114.59187,1.86595553 109.62,3.93 C100.200766,7.81048201 92.720482,15.2907659 88.84,24.71 C86.7762154,29.6819481 85.7289599,35.0168308 85.76,40.4 C85.668285,45.7741001 86.6649502,51.1111912 88.69,56.09 C92.570482,65.5092341 100.050766,72.989518 109.47,76.87 C114.413993,78.9220253 119.717102,79.9690494 125.07,79.95 L126.07,79.95 C132.336432,80.0998057 138.561413,78.895741 144.32,76.42 C149.295314,74.2384819 153.719914,70.9721365 157.27,66.86 L157.84,66.18 L145.38,52.87 L144.65,53.71 C142.455835,56.0757208 139.858812,58.032799 136.98,59.49 C133.516179,61.2790519 129.657368,62.166372 125.76,62.07 C120.751374,62.2149842 115.860891,60.5338808 112,57.34 C108.566455,54.4606356 106.257836,50.4630422 105.48,46.05 L162.48,46.05 L162.45,40.5 Z M123.65,17.85 L124.65,17.85 L124.65,17.72 C128.560644,17.7654839 132.356036,19.0504553 135.49,21.39 C138.26,23.53 140.21,26.81 141.3,31.15 L105.36,31.15 C106.588428,27.3853765 108.940623,24.0874176 112.1,21.7 C115.418531,19.1751325 119.480255,17.8212246 123.65,17.85 Z"/>
    <path d="M273.59,56.9 C273.59,50.72 271.83,45.9 268.21,42.11 C264.59,38.32 259.8,35.35 253.28,32.71 L247.91,30.77 C245.313564,29.8891758 242.880722,28.5849024 240.71,26.91 C239.47072,25.8658473 238.765878,24.320336 238.79,22.7 C238.705403,21.2140897 239.452787,19.8040768 240.73,19.04 C242.321465,18.0963486 244.151082,17.6311329 246,17.7 C250.4,17.7 253.7,19.7 256.08,23.94 L256.62,24.94 L270.45,15.38 L269.95,14.57 C267.431942,10.172141 263.690262,6.60069513 259.18,4.29 C251.770378,0.713614918 243.24676,0.213917392 235.47,2.9 C232.506617,3.90054167 229.782693,5.5042517 227.47,7.61 C225.309066,9.60930088 223.553719,12.0063508 222.3,14.67 C221.019675,17.4360089 220.370668,20.4521849 220.4,23.5 C220.376176,28.5540719 221.990051,33.4798994 225,37.54 C227.94,41.54 232.65,44.81 239.39,47.48 L244.65,49.58 C247.287547,50.5075222 249.7742,51.8182375 252.03,53.47 C253.393252,54.6087878 254.13538,56.3268142 254.03,58.1 C254.010302,59.782173 253.145997,61.3416796 251.73,62.25 C249.830827,63.5100644 247.575806,64.1237948 245.3,64 C241.67,64 238.92,63.28 236.89,61.79 C234.473249,59.9288775 232.473565,57.5817177 231.02,54.9 L230.47,53.9 L216.22,64.08 L216.7,64.87 C219.555531,69.9420242 223.811968,74.0838908 228.96,76.8 C233.4,79.02 238.69,80.06 245.61,80.06 C249.425714,80.083565 253.221619,79.5099615 256.86,78.36 C260.087327,77.370752 263.099723,75.7831376 265.74,73.68 C268.18197,71.6636231 270.163173,69.1470517 271.55,66.3 C272.960092,63.3708073 273.659033,60.1501943 273.59,56.9 Z"/>
    <polygon points="175.95 25.09 175.95 78.9 194.45 78.9 194.45 32.75 212.43 14.77 199.35 1.69"/>
    <polygon points="290.9 71.85 270.63 92.12 283.71 105.2 309.4 79.51 309.4 1.81 290.9 1.81"/>
  </g>
</svg>
